<svg preserveAspectRatio="none" width="100%" height="100%" overflow="visible" style="display: block;" viewBox="0 0 44.3144 20" fill="none" xmlns="http://www.w3.org/2000/svg">
<path id="Union" fill-rule="evenodd" clip-rule="evenodd" d="M2.36966 10.2256H18.4317C18.275 11.1 17.98 11.9927 17.6665 12.6002H18.8282C19.5567 11.6982 19.9531 10.5569 20.156 9.82061C20.2482 9.47086 20.0085 9.07509 19.6489 9.07509H17.482V0.800744H17.4728C17.4728 0.800744 17.482 0.754724 17.482 0.736316C17.482 0.331342 17.1501 0 16.7444 0H13.8031V0.589053C13.8031 0.911191 14.0612 1.17811 14.3932 1.17811H16.016V3.0189H13.8123V3.60795C13.8123 3.93009 14.0797 4.197 14.4024 4.197H16.0252V6.03779H13.8215V6.62684C13.8215 6.94898 14.0797 7.20669 14.4024 7.20669H16.0252V9.06589H4.56415V7.20669H6.76784V6.02859H4.56415V4.1878H6.76784V3.00969H4.56415V1.17811H6.76784V0H3.74352V0.0184079C3.3747 0.0644276 3.08886 0.358954 3.08886 0.736316C3.08886 0.74552 3.09117 0.757025 3.09347 0.76853C3.09578 0.780035 3.09808 0.79154 3.09808 0.800744H3.08886V9.07509H1.44762C1.15256 9.07509 0.894389 9.29599 0.866728 9.59052C0.756082 10.649 0.396481 11.8363 0 12.6002H1.16178C1.77034 11.8455 2.14837 10.9343 2.36966 10.2256ZM33.2672 8.8542V10.0323H30.3351V19.991H28.9797V10.0323H28.0668C28.0576 11.5694 27.6796 14.9564 26.3795 17.0825H25.2177C26.1582 15.3246 26.6284 12.3057 26.6284 10.0323C26.3057 10.0323 26.0476 9.77459 26.0476 9.45246V8.8634H28.9797V0H30.3351V8.8542H33.2672ZM44.3144 10.0321V8.85401H39.9716V5.3289C40.2595 5.05062 40.6352 4.70508 41.0415 4.33135L41.0423 4.3306L41.0425 4.33041L41.0427 4.33031C42.2758 3.19619 43.7906 1.80294 43.9917 1.24235C44.13 0.874188 43.8165 0.496826 43.42 0.496826H35.4167V1.08588C35.4167 1.40802 35.684 1.67493 36.0068 1.67493H41.41L39.0311 4.66622H38.4963V8.85401H34.1534V9.44306C34.1534 9.7652 34.4208 10.0321 34.7436 10.0321H38.5055V16.4933C38.5055 18.0303 37.8048 19.457 37.2607 20H38.7268C40.0638 18.6102 39.9624 16.4933 39.9624 16.4933V10.0321H44.3052H44.3144ZM33.1207 3.89327C33.2129 3.53432 32.9547 3.18457 32.5767 3.18457H31.5993C31.5809 4.28904 31.3504 6.00098 30.8986 7.10545H31.8575C32.4384 6.18506 32.9271 4.58357 33.1207 3.89327ZM27.9018 7.02263C28.3628 6.81094 28.4734 6.17587 28.0862 5.46716L26.9982 3.19379H26.0485C26.279 3.99453 26.5187 5.18184 26.657 6.21268C26.7584 7.05945 27.3854 7.28034 27.9018 7.03183V7.02263ZM33.2878 15.3431C33.7027 16.0978 33.5736 16.7513 33.0942 16.9814L33.085 16.9906C32.5409 17.2483 31.8863 17.009 31.7756 16.1255C31.678 15.3583 31.2215 14.0402 30.874 13.037L30.874 13.0369C30.7296 12.6199 30.604 12.2572 30.5309 12.0113H31.7019L33.2878 15.3431ZM10.513 3.1844C9.92292 3.50653 9.24061 3.83788 8.48453 4.08638V4.09559L7.88519 3.49733C8.28167 3.34086 8.90867 3.00032 9.56332 2.58614C9.02853 2.24559 8.46608 1.89584 7.96817 1.59211L8.59517 0.966244L8.79707 1.07452L8.79751 1.07475C9.35113 1.37162 9.9154 1.6742 10.4577 1.96947C11.0017 1.5645 11.4996 1.13191 11.8316 0.736145L12.7813 1.68415C12.7545 1.699 12.6903 1.74831 12.5921 1.82377C12.3859 1.98223 12.0297 2.25598 11.5549 2.56773C11.8592 2.7334 12.4032 3.05554 12.4032 3.05554C12.56 3.15678 12.6614 3.32245 12.6614 3.51574C12.6614 3.82867 12.4032 4.08638 12.0897 4.08638C11.9883 4.08638 11.8961 4.04957 11.8131 4.00355C11.8039 4.00355 11.0386 3.52494 10.513 3.1844ZM18.7096 17.0732V15.8951H11.2133V14.9287L14.376 13.1707C15.0491 12.8026 14.8554 11.9926 14.1455 11.9926H5.65338V12.5817C5.65338 12.9038 5.92078 13.1707 6.24349 13.1707H12.0524L10.4757 14.3672H9.73805V15.8951H1.61481V16.4841C1.61481 16.8063 1.8822 17.0732 2.20492 17.0732H9.7565C9.7565 18.4446 9.07418 19.365 8.51173 19.9908H9.97779C10.9644 19.1073 11.1765 18.0212 11.2133 17.4598V17.0824H18.7096V17.0732ZM11.8131 8.17323C11.8039 8.17323 11.0386 7.69462 10.513 7.35407V7.36328C9.92292 7.68542 9.24061 8.01676 8.48453 8.26526L7.88519 7.66701C8.28167 7.51054 8.90867 7.16999 9.56332 6.75582C9.02853 6.41527 8.46608 6.06552 7.96817 5.76179L8.59517 5.13592C8.66228 5.17192 8.72962 5.20803 8.79711 5.24422C9.35085 5.54115 9.91527 5.84381 10.4577 6.13915C11.0017 5.73418 11.4996 5.30159 11.8316 4.90582L12.7813 5.85383C12.7545 5.86867 12.6903 5.91799 12.5921 5.99345C12.3859 6.15191 12.0297 6.42565 11.5549 6.73741C11.8592 6.90308 12.4032 7.22522 12.4032 7.22522C12.56 7.32646 12.6614 7.49213 12.6614 7.68542C12.6614 7.99835 12.4032 8.25606 12.0897 8.25606C11.9883 8.25606 11.8961 8.21924 11.8131 8.17323Z" fill="var(--fill-0, white)"/>
</svg>
