<svg preserveAspectRatio="none" width="100%" height="100%" overflow="visible" style="display: block;" viewBox="0 0 40 20" fill="none" xmlns="http://www.w3.org/2000/svg">
<path id="Logo" d="M26.8333 0.192883C22.25 -0.972242 20 3.52181 20 3.52181C20 3.52181 17.6667 -0.972242 13.1667 0.192883C9.33333 1.19156 8.58333 5.2695 2.08333 7.10041L0 9.18099C4.5 9.18099 7.5 9.01454 12.1667 6.76751C16.1667 4.85338 17.3333 7.35008 17.5 8.5152C17.75 11.0951 15 11.7609 15 15.0898C15 17.8362 17.3333 20 20 20C22.6667 20 25 17.8362 25 15.0898C25 11.7609 22.25 11.0119 22.5 8.5152C22.6667 7.35008 23.9167 4.85338 27.8333 6.76751C32.5 9.01454 35.5 9.18099 40 9.18099L37.9167 7.10041C31.4167 5.2695 30.75 1.19156 26.8333 0.192883Z" fill="var(--fill-0, white)"/>
</svg>
